<svg width="18" height="18" viewBox="0 0 18 18" fill="none" xmlns="http://www.w3.org/2000/svg">
<path d="M14.2061 9.96272C14.0303 9.55842 13.7596 9.20334 13.2182 8.90452C12.9384 8.74631 12.6378 8.62798 12.3252 8.55295C12.5355 8.45524 12.729 8.3247 12.8983 8.16624C13.1472 7.94374 13.3358 7.66198 13.4467 7.3471C13.5488 7.0271 13.5905 6.69093 13.5698 6.35569C13.5311 5.76506 13.4151 5.19202 13.1057 4.78069C12.7963 4.36936 12.3604 4.05295 11.7838 3.83147C11.3409 3.66272 10.8873 3.55725 10.1842 3.51858V1.27209H8.77797V3.52209H7.65297V1.27209H6.21157V3.52209H3.15051V5.20959H4.13032C4.43618 5.20959 4.6436 5.23772 4.74907 5.29045C4.8472 5.33244 4.92789 5.40692 4.97758 5.50139C5.02329 5.58928 5.04438 5.7967 5.04438 6.11663V12.2057C5.04438 12.5221 5.02329 12.726 4.97758 12.8174C4.93188 12.9088 4.90727 12.9897 4.79829 13.0389C4.6893 13.0881 4.68579 13.0846 4.38344 13.0846H3.45532L3.15051 14.7721H6.20911V17.0221H7.65051V14.7721H8.77551V17.0221H10.1818V14.758C11.0958 14.7123 11.7462 14.5928 12.27 14.3959C12.9486 14.1428 13.4689 13.7737 13.8415 13.2885C14.2142 12.8033 14.3337 12.0615 14.3664 11.4885C14.39 10.9787 14.3654 10.3213 14.2061 9.96272ZM7.65051 5.42053H8.77551V8.02209H7.65051V5.42053ZM7.65051 12.8737V9.70959H8.77551V12.8737H7.65051ZM10.1818 5.55764C10.3927 5.64553 10.5298 5.82131 10.6669 6.00413C10.8181 6.20452 10.8954 6.4717 10.8954 6.75647C10.8954 7.03069 10.7935 7.26624 10.6318 7.47717C10.4982 7.64944 10.3927 7.76897 10.1818 7.86741V5.55764ZM11.1943 12.1213C10.92 12.3639 10.7618 12.4764 10.4173 12.6065C10.3403 12.6336 10.2616 12.6559 10.1818 12.6733V9.76233C10.3193 9.78268 10.4531 9.82295 10.579 9.88186C10.8532 9.99788 11.1134 10.1244 11.2751 10.3459C11.4544 10.6003 11.5525 10.9031 11.5564 11.2143C11.5553 11.5975 11.4569 11.8893 11.1932 12.1213H11.1943Z" fill="#808080"/>
</svg>
